<mxfile host="app.diagrams.net" agent="Mozilla/5.0 (Windows NT 10.0; Win64; x64) AppleWebKit/537.36 (KHTML, like Gecko) Chrome/131.0.0.0 Safari/537.36" version="24.7.6">
  <diagram id="C5RBs43oDa-KdzZeNtuy" name="Page-1">
    <mxGraphModel dx="535" dy="323" grid="1" gridSize="10" guides="1" tooltips="1" connect="1" arrows="1" fold="1" page="1" pageScale="1" pageWidth="827" pageHeight="1169" math="0" shadow="0">
      <root>
        <mxCell id="WIyWlLk6GJQsqaUBKTNV-0" />
        <mxCell id="WIyWlLk6GJQsqaUBKTNV-1" parent="WIyWlLk6GJQsqaUBKTNV-0" />
        <mxCell id="us3x3cCLSBMo6dlKbdrp-0" value="Start" style="ellipse;whiteSpace=wrap;html=1;" vertex="1" parent="WIyWlLk6GJQsqaUBKTNV-1">
          <mxGeometry x="20" y="150" width="70" height="40" as="geometry" />
        </mxCell>
        <mxCell id="us3x3cCLSBMo6dlKbdrp-1" value="End" style="ellipse;whiteSpace=wrap;html=1;" vertex="1" parent="WIyWlLk6GJQsqaUBKTNV-1">
          <mxGeometry x="740" y="150" width="70" height="40" as="geometry" />
        </mxCell>
        <mxCell id="us3x3cCLSBMo6dlKbdrp-4" value="Upload Master Key" style="shape=parallelogram;perimeter=parallelogramPerimeter;whiteSpace=wrap;html=1;fixedSize=1;" vertex="1" parent="WIyWlLk6GJQsqaUBKTNV-1">
          <mxGeometry x="110" y="152.5" width="140" height="35" as="geometry" />
        </mxCell>
        <mxCell id="us3x3cCLSBMo6dlKbdrp-5" value="Circle" style="rhombus;whiteSpace=wrap;html=1;" vertex="1" parent="WIyWlLk6GJQsqaUBKTNV-1">
          <mxGeometry x="460" y="145" width="110" height="50" as="geometry" />
        </mxCell>
        <mxCell id="us3x3cCLSBMo6dlKbdrp-7" value="Cross Processing Module" style="rounded=1;whiteSpace=wrap;html=1;" vertex="1" parent="WIyWlLk6GJQsqaUBKTNV-1">
          <mxGeometry x="455" y="250" width="120" height="60" as="geometry" />
        </mxCell>
        <mxCell id="us3x3cCLSBMo6dlKbdrp-8" value="Circles Processing Module" style="rounded=1;whiteSpace=wrap;html=1;" vertex="1" parent="WIyWlLk6GJQsqaUBKTNV-1">
          <mxGeometry x="455" y="30" width="120" height="60" as="geometry" />
        </mxCell>
        <mxCell id="us3x3cCLSBMo6dlKbdrp-9" value="Upload Student Answer" style="shape=parallelogram;perimeter=parallelogramPerimeter;whiteSpace=wrap;html=1;fixedSize=1;" vertex="1" parent="WIyWlLk6GJQsqaUBKTNV-1">
          <mxGeometry x="270" y="145" width="160" height="50" as="geometry" />
        </mxCell>
        <mxCell id="us3x3cCLSBMo6dlKbdrp-10" value="" style="endArrow=classic;html=1;rounded=0;exitX=1;exitY=0.5;exitDx=0;exitDy=0;entryX=0;entryY=0.5;entryDx=0;entryDy=0;" edge="1" parent="WIyWlLk6GJQsqaUBKTNV-1" source="us3x3cCLSBMo6dlKbdrp-0" target="us3x3cCLSBMo6dlKbdrp-4">
          <mxGeometry width="50" height="50" relative="1" as="geometry">
            <mxPoint x="360" y="270" as="sourcePoint" />
            <mxPoint x="410" y="220" as="targetPoint" />
          </mxGeometry>
        </mxCell>
        <mxCell id="us3x3cCLSBMo6dlKbdrp-11" value="" style="endArrow=classic;html=1;rounded=0;entryX=0;entryY=0.5;entryDx=0;entryDy=0;exitX=1;exitY=0.5;exitDx=0;exitDy=0;" edge="1" parent="WIyWlLk6GJQsqaUBKTNV-1" source="us3x3cCLSBMo6dlKbdrp-4" target="us3x3cCLSBMo6dlKbdrp-9">
          <mxGeometry width="50" height="50" relative="1" as="geometry">
            <mxPoint x="266" y="177" as="sourcePoint" />
            <mxPoint x="410" y="220" as="targetPoint" />
          </mxGeometry>
        </mxCell>
        <mxCell id="us3x3cCLSBMo6dlKbdrp-12" value="" style="endArrow=classic;html=1;rounded=0;exitX=1;exitY=0.5;exitDx=0;exitDy=0;entryX=0;entryY=0.5;entryDx=0;entryDy=0;" edge="1" parent="WIyWlLk6GJQsqaUBKTNV-1" source="us3x3cCLSBMo6dlKbdrp-9" target="us3x3cCLSBMo6dlKbdrp-5">
          <mxGeometry width="50" height="50" relative="1" as="geometry">
            <mxPoint x="360" y="270" as="sourcePoint" />
            <mxPoint x="410" y="220" as="targetPoint" />
          </mxGeometry>
        </mxCell>
        <mxCell id="us3x3cCLSBMo6dlKbdrp-13" value="" style="endArrow=classic;html=1;rounded=0;entryX=0.5;entryY=0;entryDx=0;entryDy=0;" edge="1" parent="WIyWlLk6GJQsqaUBKTNV-1" target="us3x3cCLSBMo6dlKbdrp-7">
          <mxGeometry width="50" height="50" relative="1" as="geometry">
            <mxPoint x="515" y="195" as="sourcePoint" />
            <mxPoint x="410" y="220" as="targetPoint" />
          </mxGeometry>
        </mxCell>
        <mxCell id="us3x3cCLSBMo6dlKbdrp-26" value="No" style="edgeLabel;html=1;align=center;verticalAlign=middle;resizable=0;points=[];" vertex="1" connectable="0" parent="us3x3cCLSBMo6dlKbdrp-13">
          <mxGeometry x="-0.5662" relative="1" as="geometry">
            <mxPoint y="13" as="offset" />
          </mxGeometry>
        </mxCell>
        <mxCell id="us3x3cCLSBMo6dlKbdrp-14" value="" style="endArrow=classic;html=1;rounded=0;exitX=0.5;exitY=0;exitDx=0;exitDy=0;entryX=0.5;entryY=1;entryDx=0;entryDy=0;" edge="1" parent="WIyWlLk6GJQsqaUBKTNV-1" source="us3x3cCLSBMo6dlKbdrp-5" target="us3x3cCLSBMo6dlKbdrp-8">
          <mxGeometry width="50" height="50" relative="1" as="geometry">
            <mxPoint x="360" y="270" as="sourcePoint" />
            <mxPoint x="610" y="145" as="targetPoint" />
          </mxGeometry>
        </mxCell>
        <mxCell id="us3x3cCLSBMo6dlKbdrp-21" value="Yes" style="edgeLabel;html=1;align=center;verticalAlign=middle;resizable=0;points=[];" vertex="1" connectable="0" parent="us3x3cCLSBMo6dlKbdrp-14">
          <mxGeometry x="-0.2553" y="-1" relative="1" as="geometry">
            <mxPoint x="-1" y="-4" as="offset" />
          </mxGeometry>
        </mxCell>
        <mxCell id="us3x3cCLSBMo6dlKbdrp-17" value="Score and Correction" style="shape=parallelogram;perimeter=parallelogramPerimeter;whiteSpace=wrap;html=1;fixedSize=1;" vertex="1" parent="WIyWlLk6GJQsqaUBKTNV-1">
          <mxGeometry x="600" y="152.5" width="110" height="35" as="geometry" />
        </mxCell>
        <mxCell id="us3x3cCLSBMo6dlKbdrp-18" value="" style="endArrow=classic;html=1;rounded=0;exitX=1;exitY=0.5;exitDx=0;exitDy=0;entryX=0.5;entryY=0;entryDx=0;entryDy=0;" edge="1" parent="WIyWlLk6GJQsqaUBKTNV-1" source="us3x3cCLSBMo6dlKbdrp-8" target="us3x3cCLSBMo6dlKbdrp-17">
          <mxGeometry width="50" height="50" relative="1" as="geometry">
            <mxPoint x="360" y="270" as="sourcePoint" />
            <mxPoint x="410" y="220" as="targetPoint" />
            <Array as="points">
              <mxPoint x="655" y="60" />
            </Array>
          </mxGeometry>
        </mxCell>
        <mxCell id="us3x3cCLSBMo6dlKbdrp-19" value="" style="endArrow=classic;html=1;rounded=0;exitX=1;exitY=0.5;exitDx=0;exitDy=0;entryX=0.5;entryY=1;entryDx=0;entryDy=0;" edge="1" parent="WIyWlLk6GJQsqaUBKTNV-1" source="us3x3cCLSBMo6dlKbdrp-7" target="us3x3cCLSBMo6dlKbdrp-17">
          <mxGeometry width="50" height="50" relative="1" as="geometry">
            <mxPoint x="360" y="270" as="sourcePoint" />
            <mxPoint x="410" y="220" as="targetPoint" />
            <Array as="points">
              <mxPoint x="655" y="280" />
            </Array>
          </mxGeometry>
        </mxCell>
        <mxCell id="us3x3cCLSBMo6dlKbdrp-20" value="" style="endArrow=classic;html=1;rounded=0;exitX=1;exitY=0.5;exitDx=0;exitDy=0;entryX=0;entryY=0.5;entryDx=0;entryDy=0;" edge="1" parent="WIyWlLk6GJQsqaUBKTNV-1" source="us3x3cCLSBMo6dlKbdrp-17" target="us3x3cCLSBMo6dlKbdrp-1">
          <mxGeometry width="50" height="50" relative="1" as="geometry">
            <mxPoint x="360" y="270" as="sourcePoint" />
            <mxPoint x="410" y="220" as="targetPoint" />
          </mxGeometry>
        </mxCell>
      </root>
    </mxGraphModel>
  </diagram>
</mxfile>
